<?xml version="1.0" encoding="utf-8"?>
<!-- Generator: Adobe Illustrator 24.0.0, SVG Export Plug-In . SVG Version: 6.00 Build 0)  -->
<svg version="1.1" id="Layer_1" xmlns="http://www.w3.org/2000/svg" xmlns:xlink="http://www.w3.org/1999/xlink" x="0px" y="0px"
	 viewBox="0 0 45.4 37.8" style="enable-background:new 0 0 45.4 37.8;" xml:space="preserve">
<style type="text/css">
	.st0{fill:#FFFFFF;}
	.st1{fill:#00A651;}
</style>
<g>
	<g>
		<path class="st0" d="M15.9,29.3c-2.4,0-4.3,1.9-4.3,4.3s1.9,4.3,4.3,4.3c2.4,0,4.3-1.9,4.3-4.3S18.3,29.3,15.9,29.3z M15.9,35.2
			c-0.9,0-1.7-0.7-1.7-1.7s0.7-1.7,1.7-1.7c0.9,0,1.7,0.7,1.7,1.7S16.8,35.2,15.9,35.2z"/>
		<path class="st0" d="M35.4,29.3c-2.4,0-4.3,1.9-4.3,4.3s1.9,4.3,4.3,4.3c2.4,0,4.3-1.9,4.3-4.3S37.8,29.3,35.4,29.3z M35.4,35.2
			c-0.9,0-1.7-0.7-1.7-1.7s0.7-1.7,1.7-1.7c0.9,0,1.7,0.7,1.7,1.7S36.4,35.2,35.4,35.2z"/>
		<path class="st0" d="M3.4,32.4h7.3c0.2-1,0.7-1.8,1.3-2.5H3.4V32.4z"/>
		<path class="st0" d="M43.8,29.9v-8.7l-6-9.7h-9.7v18.3h-8.3c0.7,0.7,1.1,1.5,1.3,2.5h9.2c0.5-2.4,2.6-4.2,5.2-4.2s4.7,1.8,5.2,4.2
			h4.8v-2.5H43.8z M31,20.1v-5.7h4.5l4,5.7H31z"/>
		<path class="st0" d="M17.3,8c0,1.1,0,2.2,0,3.4c0,7.4-9.3,10.2-9.3,10.2s-1.5,0-3,0v6.4h21.4V8H17.3z"/>
	</g>
	<path class="st0" d="M15.7,3.4C12.4,3.4,9.6,2,8.6,0H7.1C6.1,2,3.3,3.4,0,3.4c0,2.1,0,5,0,7.7c0,5.4,8,8.5,8,8.5s7.7-2.3,7.7-8.5
		C15.8,8.1,15.8,5.4,15.7,3.4C15.7,3.4,15.7,3.4,15.7,3.4z"/>
	<path class="st1" d="M14.5,4.4c-2.8,0-5.1-1.2-6-2.9H7.3C6.4,3.2,4,4.4,1.3,4.4c0,1.8,0,4.2,0,6.6c0,4.6,6.7,7.2,6.7,7.2
		s6.5-2,6.5-7.2C14.5,8.4,14.5,6.1,14.5,4.4C14.5,4.4,14.5,4.4,14.5,4.4z"/>
	<g>
		<path class="st0" d="M7.3,12.2C7.3,12.2,7.2,12.2,7.3,12.2c-0.2,0-0.4-0.1-0.6-0.2L4.8,9.8c-0.3-0.3-0.3-0.8,0-1.1
			c0.3-0.3,0.8-0.3,1.1,0l1.4,1.5l2.6-2.7c0.3-0.3,0.8-0.3,1.1,0c0.3,0.3,0.3,0.8,0,1.1l-3.2,3.3C7.7,12.1,7.5,12.2,7.3,12.2z"/>
	</g>
</g>
</svg>
